<mxfile host="app.diagrams.net" modified="2023-07-14T00:05:45.259Z" agent="Mozilla/5.0 (Windows NT 10.0; Win64; x64) AppleWebKit/537.36 (KHTML, like Gecko) Chrome/114.0.0.0 Safari/537.36" etag="MzKz3YNWC7scp-qKyKiB" version="21.6.2" type="github">
  <diagram name="Page-1" id="32we7wKkpuTMR-FPi_ei">
    <mxGraphModel dx="880" dy="452" grid="1" gridSize="10" guides="1" tooltips="1" connect="1" arrows="1" fold="1" page="1" pageScale="1" pageWidth="850" pageHeight="1100" math="0" shadow="0">
      <root>
        <mxCell id="0" />
        <mxCell id="1" parent="0" />
        <mxCell id="rc7ttSQa2OtZKkBT7D2q-3" style="edgeStyle=orthogonalEdgeStyle;rounded=0;orthogonalLoop=1;jettySize=auto;html=1;entryX=0;entryY=0.5;entryDx=0;entryDy=0;" parent="1" source="zyYQOy7fIr2kreB1w1Vg-1" target="zyYQOy7fIr2kreB1w1Vg-10" edge="1">
          <mxGeometry relative="1" as="geometry" />
        </mxCell>
        <mxCell id="zyYQOy7fIr2kreB1w1Vg-1" value="" style="rounded=0;whiteSpace=wrap;html=1;" parent="1" vertex="1">
          <mxGeometry x="80" y="160" width="180" height="80" as="geometry" />
        </mxCell>
        <mxCell id="zyYQOy7fIr2kreB1w1Vg-2" value="Vehiculo" style="text;html=1;strokeColor=none;fillColor=none;align=center;verticalAlign=middle;whiteSpace=wrap;rounded=0;" parent="1" vertex="1">
          <mxGeometry x="650" y="185" width="60" height="30" as="geometry" />
        </mxCell>
        <mxCell id="rc7ttSQa2OtZKkBT7D2q-5" style="edgeStyle=orthogonalEdgeStyle;rounded=0;orthogonalLoop=1;jettySize=auto;html=1;exitX=0.5;exitY=1;exitDx=0;exitDy=0;" parent="1" source="zyYQOy7fIr2kreB1w1Vg-3" edge="1">
          <mxGeometry relative="1" as="geometry">
            <mxPoint x="680" y="300.0000000000001" as="targetPoint" />
            <Array as="points">
              <mxPoint x="670" y="270" />
              <mxPoint x="680" y="270" />
            </Array>
          </mxGeometry>
        </mxCell>
        <mxCell id="shR7SwW37Sfv0lqV9xud-8" style="edgeStyle=orthogonalEdgeStyle;rounded=0;orthogonalLoop=1;jettySize=auto;html=1;entryX=1;entryY=0.5;entryDx=0;entryDy=0;" edge="1" parent="1" source="zyYQOy7fIr2kreB1w1Vg-3" target="shR7SwW37Sfv0lqV9xud-6">
          <mxGeometry relative="1" as="geometry" />
        </mxCell>
        <mxCell id="zyYQOy7fIr2kreB1w1Vg-3" value="" style="rounded=0;whiteSpace=wrap;html=1;" parent="1" vertex="1">
          <mxGeometry x="580" y="160" width="180" height="80" as="geometry" />
        </mxCell>
        <mxCell id="shR7SwW37Sfv0lqV9xud-13" style="edgeStyle=orthogonalEdgeStyle;rounded=0;orthogonalLoop=1;jettySize=auto;html=1;" edge="1" parent="1" source="zyYQOy7fIr2kreB1w1Vg-4" target="shR7SwW37Sfv0lqV9xud-7">
          <mxGeometry relative="1" as="geometry" />
        </mxCell>
        <mxCell id="zyYQOy7fIr2kreB1w1Vg-4" value="" style="rounded=0;whiteSpace=wrap;html=1;" parent="1" vertex="1">
          <mxGeometry x="580" y="440" width="180" height="80" as="geometry" />
        </mxCell>
        <mxCell id="zyYQOy7fIr2kreB1w1Vg-7" value="&lt;font style=&quot;font-size: 24px;&quot;&gt;Cliente&lt;/font&gt;" style="text;html=1;strokeColor=none;fillColor=none;align=center;verticalAlign=middle;whiteSpace=wrap;rounded=0;" parent="1" vertex="1">
          <mxGeometry x="140" y="185" width="60" height="30" as="geometry" />
        </mxCell>
        <mxCell id="zyYQOy7fIr2kreB1w1Vg-8" value="&lt;font style=&quot;font-size: 24px;&quot;&gt;Mantenimiento&lt;/font&gt;" style="text;html=1;strokeColor=none;fillColor=none;align=center;verticalAlign=middle;whiteSpace=wrap;rounded=0;" parent="1" vertex="1">
          <mxGeometry x="640" y="465" width="60" height="30" as="geometry" />
        </mxCell>
        <mxCell id="rc7ttSQa2OtZKkBT7D2q-6" style="edgeStyle=orthogonalEdgeStyle;rounded=0;orthogonalLoop=1;jettySize=auto;html=1;" parent="1" source="zyYQOy7fIr2kreB1w1Vg-9" edge="1">
          <mxGeometry relative="1" as="geometry">
            <mxPoint x="680" y="440" as="targetPoint" />
          </mxGeometry>
        </mxCell>
        <mxCell id="zyYQOy7fIr2kreB1w1Vg-9" value="" style="rhombus;whiteSpace=wrap;html=1;" parent="1" vertex="1">
          <mxGeometry x="610" y="300" width="140" height="80" as="geometry" />
        </mxCell>
        <mxCell id="rc7ttSQa2OtZKkBT7D2q-4" style="edgeStyle=orthogonalEdgeStyle;rounded=0;orthogonalLoop=1;jettySize=auto;html=1;" parent="1" source="zyYQOy7fIr2kreB1w1Vg-10" edge="1">
          <mxGeometry relative="1" as="geometry">
            <mxPoint x="580" y="200" as="targetPoint" />
          </mxGeometry>
        </mxCell>
        <mxCell id="zyYQOy7fIr2kreB1w1Vg-10" value="" style="rhombus;whiteSpace=wrap;html=1;" parent="1" vertex="1">
          <mxGeometry x="340" y="160" width="140" height="80" as="geometry" />
        </mxCell>
        <mxCell id="zyYQOy7fIr2kreB1w1Vg-11" value="" style="ellipse;whiteSpace=wrap;html=1;" parent="1" vertex="1">
          <mxGeometry x="710" y="70" width="100" height="50" as="geometry" />
        </mxCell>
        <mxCell id="zyYQOy7fIr2kreB1w1Vg-12" value="Matricula" style="text;html=1;strokeColor=none;fillColor=none;align=center;verticalAlign=middle;whiteSpace=wrap;rounded=0;" parent="1" vertex="1">
          <mxGeometry x="730" y="80" width="60" height="30" as="geometry" />
        </mxCell>
        <mxCell id="zyYQOy7fIr2kreB1w1Vg-15" value="" style="endArrow=none;html=1;rounded=0;" parent="1" edge="1">
          <mxGeometry width="50" height="50" relative="1" as="geometry">
            <mxPoint x="700" y="160" as="sourcePoint" />
            <mxPoint x="740" y="120" as="targetPoint" />
          </mxGeometry>
        </mxCell>
        <mxCell id="zyYQOy7fIr2kreB1w1Vg-17" value="&lt;font style=&quot;font-size: 24px;&quot;&gt;Vehiculo&lt;/font&gt;" style="text;html=1;strokeColor=none;fillColor=none;align=center;verticalAlign=middle;whiteSpace=wrap;rounded=0;" parent="1" vertex="1">
          <mxGeometry x="640" y="185" width="60" height="30" as="geometry" />
        </mxCell>
        <mxCell id="zyYQOy7fIr2kreB1w1Vg-18" value="" style="endArrow=none;html=1;rounded=0;" parent="1" edge="1">
          <mxGeometry width="50" height="50" relative="1" as="geometry">
            <mxPoint x="260" y="199.5" as="sourcePoint" />
            <mxPoint x="340" y="199.5" as="targetPoint" />
          </mxGeometry>
        </mxCell>
        <mxCell id="zyYQOy7fIr2kreB1w1Vg-19" value="" style="endArrow=none;html=1;rounded=0;exitX=1;exitY=0.5;exitDx=0;exitDy=0;" parent="1" edge="1">
          <mxGeometry width="50" height="50" relative="1" as="geometry">
            <mxPoint x="580" y="200" as="sourcePoint" />
            <mxPoint x="580" y="199.5" as="targetPoint" />
          </mxGeometry>
        </mxCell>
        <mxCell id="zyYQOy7fIr2kreB1w1Vg-20" value="&lt;font style=&quot;font-size: 24px;&quot;&gt;Adquiere&lt;/font&gt;" style="text;html=1;strokeColor=none;fillColor=none;align=center;verticalAlign=middle;whiteSpace=wrap;rounded=0;" parent="1" vertex="1">
          <mxGeometry x="380" y="185" width="60" height="30" as="geometry" />
        </mxCell>
        <mxCell id="zyYQOy7fIr2kreB1w1Vg-22" value="" style="ellipse;whiteSpace=wrap;html=1;" parent="1" vertex="1">
          <mxGeometry x="20" y="280" width="100" height="50" as="geometry" />
        </mxCell>
        <mxCell id="zyYQOy7fIr2kreB1w1Vg-24" value="Codigo Interno" style="text;html=1;strokeColor=none;fillColor=none;align=center;verticalAlign=middle;whiteSpace=wrap;rounded=0;" parent="1" vertex="1">
          <mxGeometry x="30" y="290" width="60" height="30" as="geometry" />
        </mxCell>
        <mxCell id="zyYQOy7fIr2kreB1w1Vg-27" value="" style="endArrow=none;html=1;rounded=0;exitX=0.9;exitY=0.2;exitDx=0;exitDy=0;exitPerimeter=0;" parent="1" source="zyYQOy7fIr2kreB1w1Vg-22" edge="1">
          <mxGeometry width="50" height="50" relative="1" as="geometry">
            <mxPoint x="100" y="290" as="sourcePoint" />
            <mxPoint x="150" y="240" as="targetPoint" />
          </mxGeometry>
        </mxCell>
        <mxCell id="zyYQOy7fIr2kreB1w1Vg-28" value="&lt;font style=&quot;font-size: 24px;&quot;&gt;1&lt;/font&gt;" style="text;html=1;strokeColor=none;fillColor=none;align=center;verticalAlign=middle;whiteSpace=wrap;rounded=0;" parent="1" vertex="1">
          <mxGeometry x="260" y="160" width="60" height="30" as="geometry" />
        </mxCell>
        <mxCell id="zyYQOy7fIr2kreB1w1Vg-29" value="&lt;font style=&quot;font-size: 24px;&quot;&gt;*&lt;/font&gt;" style="text;html=1;strokeColor=none;fillColor=none;align=center;verticalAlign=middle;whiteSpace=wrap;rounded=0;" parent="1" vertex="1">
          <mxGeometry x="520" y="155" width="60" height="30" as="geometry" />
        </mxCell>
        <mxCell id="zyYQOy7fIr2kreB1w1Vg-30" value="&lt;font style=&quot;font-size: 24px;&quot;&gt;1:N&lt;/font&gt;" style="text;html=1;strokeColor=none;fillColor=none;align=center;verticalAlign=middle;whiteSpace=wrap;rounded=0;" parent="1" vertex="1">
          <mxGeometry x="380" y="120" width="60" height="30" as="geometry" />
        </mxCell>
        <mxCell id="zyYQOy7fIr2kreB1w1Vg-32" value="" style="endArrow=none;html=1;rounded=0;" parent="1" edge="1">
          <mxGeometry width="50" height="50" relative="1" as="geometry">
            <mxPoint x="680" y="440" as="sourcePoint" />
            <mxPoint x="680" y="380" as="targetPoint" />
          </mxGeometry>
        </mxCell>
        <mxCell id="zyYQOy7fIr2kreB1w1Vg-33" value="&lt;font style=&quot;font-size: 24px;&quot;&gt;Conlleva&lt;/font&gt;" style="text;html=1;strokeColor=none;fillColor=none;align=center;verticalAlign=middle;whiteSpace=wrap;rounded=0;" parent="1" vertex="1">
          <mxGeometry x="650" y="320" width="60" height="30" as="geometry" />
        </mxCell>
        <mxCell id="zyYQOy7fIr2kreB1w1Vg-34" value="" style="ellipse;whiteSpace=wrap;html=1;" parent="1" vertex="1">
          <mxGeometry x="680" y="550" width="100" height="50" as="geometry" />
        </mxCell>
        <mxCell id="zyYQOy7fIr2kreB1w1Vg-35" value="Codigo Revision" style="text;html=1;strokeColor=none;fillColor=none;align=center;verticalAlign=middle;whiteSpace=wrap;rounded=0;" parent="1" vertex="1">
          <mxGeometry x="700" y="560" width="60" height="30" as="geometry" />
        </mxCell>
        <mxCell id="zyYQOy7fIr2kreB1w1Vg-36" value="" style="endArrow=none;html=1;rounded=0;entryX=0.594;entryY=1.013;entryDx=0;entryDy=0;entryPerimeter=0;exitX=0.5;exitY=0;exitDx=0;exitDy=0;" parent="1" source="zyYQOy7fIr2kreB1w1Vg-34" target="zyYQOy7fIr2kreB1w1Vg-4" edge="1">
          <mxGeometry width="50" height="50" relative="1" as="geometry">
            <mxPoint x="670" y="580" as="sourcePoint" />
            <mxPoint x="720" y="530" as="targetPoint" />
          </mxGeometry>
        </mxCell>
        <mxCell id="zyYQOy7fIr2kreB1w1Vg-37" value="&lt;font style=&quot;font-size: 24px;&quot;&gt;1&lt;/font&gt;" style="text;html=1;strokeColor=none;fillColor=none;align=center;verticalAlign=middle;whiteSpace=wrap;rounded=0;" parent="1" vertex="1">
          <mxGeometry x="690" y="240" width="60" height="30" as="geometry" />
        </mxCell>
        <mxCell id="zyYQOy7fIr2kreB1w1Vg-38" value="&lt;font style=&quot;font-size: 24px;&quot;&gt;*&lt;/font&gt;" style="text;html=1;strokeColor=none;fillColor=none;align=center;verticalAlign=middle;whiteSpace=wrap;rounded=0;" parent="1" vertex="1">
          <mxGeometry x="690" y="410" width="60" height="30" as="geometry" />
        </mxCell>
        <mxCell id="zyYQOy7fIr2kreB1w1Vg-40" value="&lt;font style=&quot;font-size: 24px;&quot;&gt;1:N&lt;/font&gt;" style="text;html=1;strokeColor=none;fillColor=none;align=center;verticalAlign=middle;whiteSpace=wrap;rounded=0;" parent="1" vertex="1">
          <mxGeometry x="600" y="280" width="60" height="30" as="geometry" />
        </mxCell>
        <mxCell id="zyYQOy7fIr2kreB1w1Vg-41" value="DIAGRAMA ENTIDAD RELACION&lt;br&gt;" style="text;html=1;strokeColor=none;fillColor=none;align=center;verticalAlign=middle;whiteSpace=wrap;rounded=0;" parent="1" vertex="1">
          <mxGeometry x="70" y="10" width="730" height="40" as="geometry" />
        </mxCell>
        <mxCell id="rc7ttSQa2OtZKkBT7D2q-2" value="" style="endArrow=none;html=1;rounded=0;exitX=1;exitY=0.5;exitDx=0;exitDy=0;" parent="1" source="zyYQOy7fIr2kreB1w1Vg-10" edge="1">
          <mxGeometry width="50" height="50" relative="1" as="geometry">
            <mxPoint x="480" y="200" as="sourcePoint" />
            <mxPoint x="560" y="200" as="targetPoint" />
          </mxGeometry>
        </mxCell>
        <mxCell id="shR7SwW37Sfv0lqV9xud-2" value="&lt;font style=&quot;font-size: 24px;&quot;&gt;1:1&lt;br&gt;1:N&lt;br&gt;N:N&lt;br&gt;&lt;/font&gt;" style="shape=document;whiteSpace=wrap;html=1;boundedLbl=1;" vertex="1" parent="1">
          <mxGeometry x="50" y="390" width="160" height="130" as="geometry" />
        </mxCell>
        <mxCell id="shR7SwW37Sfv0lqV9xud-3" value="&lt;font style=&quot;font-size: 24px;&quot;&gt;Veh_Man&lt;/font&gt;" style="rounded=0;whiteSpace=wrap;html=1;" vertex="1" parent="1">
          <mxGeometry x="240" y="300" width="160" height="80" as="geometry" />
        </mxCell>
        <mxCell id="shR7SwW37Sfv0lqV9xud-9" style="edgeStyle=orthogonalEdgeStyle;rounded=0;orthogonalLoop=1;jettySize=auto;html=1;" edge="1" parent="1" source="shR7SwW37Sfv0lqV9xud-6" target="shR7SwW37Sfv0lqV9xud-3">
          <mxGeometry relative="1" as="geometry" />
        </mxCell>
        <mxCell id="shR7SwW37Sfv0lqV9xud-6" value="" style="rhombus;whiteSpace=wrap;html=1;" vertex="1" parent="1">
          <mxGeometry x="490" y="265" width="80" height="80" as="geometry" />
        </mxCell>
        <mxCell id="shR7SwW37Sfv0lqV9xud-14" style="edgeStyle=orthogonalEdgeStyle;rounded=0;orthogonalLoop=1;jettySize=auto;html=1;entryX=0.5;entryY=1;entryDx=0;entryDy=0;" edge="1" parent="1" source="shR7SwW37Sfv0lqV9xud-7" target="shR7SwW37Sfv0lqV9xud-3">
          <mxGeometry relative="1" as="geometry" />
        </mxCell>
        <mxCell id="shR7SwW37Sfv0lqV9xud-7" value="" style="rhombus;whiteSpace=wrap;html=1;" vertex="1" parent="1">
          <mxGeometry x="385" y="430" width="80" height="80" as="geometry" />
        </mxCell>
        <mxCell id="shR7SwW37Sfv0lqV9xud-15" value="&lt;font style=&quot;font-size: 24px;&quot;&gt;1:N&lt;/font&gt;" style="text;html=1;strokeColor=none;fillColor=none;align=center;verticalAlign=middle;whiteSpace=wrap;rounded=0;" vertex="1" parent="1">
          <mxGeometry x="420" y="260" width="60" height="30" as="geometry" />
        </mxCell>
        <mxCell id="shR7SwW37Sfv0lqV9xud-16" value="&lt;font style=&quot;font-size: 24px;&quot;&gt;1:N&lt;/font&gt;" style="text;html=1;strokeColor=none;fillColor=none;align=center;verticalAlign=middle;whiteSpace=wrap;rounded=0;" vertex="1" parent="1">
          <mxGeometry x="480" y="430" width="60" height="30" as="geometry" />
        </mxCell>
      </root>
    </mxGraphModel>
  </diagram>
</mxfile>
